<svg width="12" height="12" viewBox="0 0 12 12" fill="none" xmlns="http://www.w3.org/2000/svg">
<path d="M6 0C7.6568 0 9.1568 0.671719 10.2427 1.75734C11.3283 2.84297 12 4.3432 12 6C12 7.6568 11.3283 9.1568 10.2427 10.2427C9.1568 11.3285 7.6568 12 6 12C4.3432 12 2.84297 11.3285 1.75734 10.2427C0.671719 9.1568 0 7.6568 0 6C0 4.3432 0.671719 2.84297 1.75734 1.75734C2.84297 0.671719 4.3432 0 6 0ZM3.90164 5.55398C4.32352 5.7968 4.59773 5.99906 4.92375 6.35883C5.77172 4.995 6.69164 4.2382 7.88812 3.16523L8.00484 3.12047H9.31383C7.55859 5.07023 6.19805 6.67711 4.97883 9.02859C4.34484 7.67109 3.77906 6.73547 2.51414 5.86758L3.90164 5.55398ZM9.64195 2.35805C8.70984 1.42617 7.42219 0.849609 6 0.849609C4.57758 0.849609 3.28992 1.42617 2.35805 2.35805C1.42617 3.29016 0.849609 4.57758 0.849609 6C0.849609 7.42219 1.42617 8.70984 2.35805 9.64195C3.28992 10.5738 4.57758 11.1504 6 11.1504C7.42219 11.1504 8.70984 10.5738 9.64195 9.64195C10.5738 8.70984 11.1504 7.42219 11.1504 6C11.1504 4.57758 10.5738 3.29016 9.64195 2.35805Z" fill="#3A3A3A"/>
</svg>
