<svg width="22" height="29" viewBox="0 0 22 29" fill="none" xmlns="http://www.w3.org/2000/svg">
<path fill-rule="evenodd" clip-rule="evenodd" d="M11.0008 4.29584C12.3471 4.29584 13.6632 4.69214 14.7826 5.43463C15.9021 6.17711 16.7745 7.23243 17.2898 8.46714C17.805 9.70184 17.9398 11.0605 17.6771 12.3712C17.4145 13.682 16.7662 14.886 15.8142 15.831C14.8622 16.776 13.6492 17.4196 12.3288 17.6803C11.0083 17.941 9.63962 17.8072 8.39578 17.2958C7.15193 16.7843 6.0888 15.9182 5.34082 14.807C4.59284 13.6958 4.19361 12.3894 4.19361 11.053C4.19329 10.1655 4.36915 9.28672 4.71113 8.46677C5.05311 7.64682 5.55451 6.90179 6.18668 6.27427C6.81885 5.64675 7.56939 5.14904 8.39541 4.80957C9.22143 4.4701 10.1067 4.29553 11.0008 4.29584ZM11.3241 27.305C12.7597 26.386 14.0682 25.2847 15.2163 24.0291C17.6494 21.3993 19.3362 18.1758 20.1047 14.6876C20.7728 11.4613 20.4614 8.3152 18.973 5.87479C18.543 5.169 18.0129 4.52833 17.399 3.9725C15.5991 2.34399 13.552 1.56514 11.4668 1.54862C9.28887 1.52974 7.07767 2.36051 5.12326 3.89462C4.31664 4.52715 3.62299 5.2899 3.07136 6.15093C1.69947 8.29631 1.28576 10.9586 1.73751 13.7459C2.19877 16.5781 3.56116 19.5543 5.7248 22.2425C7.31395 24.2068 9.2033 25.9118 11.3241 27.2956V27.305ZM16.3718 25.0723C15.0284 26.5406 13.4818 27.812 11.7783 28.8486C11.6511 28.9414 11.4986 28.9941 11.3408 28.9995C11.183 29.005 11.0272 28.9631 10.8938 28.8793C8.46126 27.3557 6.30069 25.4415 4.50032 23.2149C2.17024 20.3095 0.69611 17.0785 0.196807 13.9867C-0.316761 10.8311 0.165898 7.78888 1.7494 5.31779C2.39587 4.31134 3.20757 3.41946 4.15081 2.67914C6.3834 0.913736 8.93936 -0.0208872 11.481 0.000354196C13.9324 0.0215956 16.3552 0.927897 18.4499 2.83255C19.1743 3.49005 19.7997 4.24755 20.3068 5.08178C22.0092 7.86677 22.3801 11.4141 21.6335 15.0062C20.8099 18.7682 18.9941 22.2453 16.3718 25.0818V25.0723ZM9.72873 12.0655H8.13096V12.6673H10.0878V13.9371H6.5332V8.98076H10.0473L9.84761 10.2505H8.13096V10.9161H9.72873V12.0655ZM12.6865 6.66544H12.1801V5.79927C12.1801 5.73041 12.1525 5.66438 12.1035 5.61569C12.0544 5.567 11.9879 5.53965 11.9185 5.53965C11.8494 5.54026 11.7832 5.56781 11.7343 5.61637C11.6854 5.66492 11.6576 5.7306 11.657 5.79927V6.66544H10.8866V5.79927C10.8866 5.73041 10.8591 5.66438 10.81 5.61569C10.761 5.567 10.6945 5.53965 10.6251 5.53965C10.5557 5.53965 10.4892 5.567 10.4402 5.61569C10.3911 5.66438 10.3636 5.73041 10.3636 5.79927V6.66544H9.87139C9.82766 6.66544 9.78568 6.68252 9.75454 6.713C9.72339 6.74347 9.70558 6.78489 9.70496 6.8283V7.01947C9.70496 7.06328 9.72249 7.10531 9.7537 7.13629C9.78492 7.16727 9.82725 7.18468 9.87139 7.18468H9.98552V7.48914C9.98552 8.16651 10.2471 8.63618 10.9556 8.70462V8.98076H10.4373L11.676 13.9371H14.0085L15.2448 8.98076H13.552L12.872 12.1292H12.8006L12.1254 8.98076H11.676V8.69754C12.3275 8.59369 12.5557 8.19719 12.5557 7.51746V7.18468H12.6865C12.7306 7.18468 12.773 7.16727 12.8042 7.13629C12.8354 7.10531 12.8529 7.06328 12.8529 7.01947V6.8283C12.8523 6.78489 12.8345 6.74347 12.8034 6.713C12.7722 6.68252 12.7302 6.66544 12.6865 6.66544Z" fill="#3A3A3A"/>
</svg>
