<svg width="16" height="14" viewBox="0 0 16 14" fill="none" xmlns="http://www.w3.org/2000/svg">
<path d="M3.66766 7.23336C3.66766 7.2476 3.66766 7.26184 3.66766 7.27479L4.24789 6.69732C4.32872 6.61673 4.42478 6.55269 4.53059 6.50888C4.63639 6.46507 4.74988 6.44233 4.86455 6.44197C4.97923 6.44161 5.09285 6.46363 5.19894 6.50678C5.30502 6.54993 5.40149 6.61335 5.48284 6.69344C5.56418 6.77352 5.62881 6.8687 5.67303 6.97353C5.71725 7.07836 5.7402 7.19079 5.74056 7.30441C5.74093 7.41803 5.7187 7.53061 5.67515 7.63572C5.6316 7.74082 5.56759 7.8364 5.48676 7.917L3.49647 9.90447C3.33588 10.064 3.11886 10.1553 2.89146 10.1589C2.66406 10.1626 2.44419 10.0782 2.27851 9.92389L0.247702 8.15524C0.0942217 7.99916 0.00585878 7.79144 0.000281049 7.5736C-0.00529669 7.35576 0.0723219 7.14387 0.217617 6.98028C0.362912 6.8167 0.565175 6.71348 0.783964 6.69126C1.00275 6.66905 1.22194 6.72948 1.39771 6.86046L1.92044 7.31881C1.8541 5.90721 2.21841 4.50854 2.96589 3.30502C3.70749 2.11172 4.80282 1.17436 6.10227 0.620954C6.56563 0.424159 7.04701 0.27197 7.53978 0.166488C9.11773 -0.18575 10.7705 0.0248343 12.2072 0.76117C13.6438 1.49751 14.7723 2.71239 15.3938 4.19194C15.5923 4.6506 15.7442 5.1277 15.8473 5.61619C16.0982 6.77422 16.0392 7.97713 15.6761 9.1056C15.3073 10.2289 14.6529 11.2393 13.7759 12.0396C12.9385 12.8227 11.9294 13.4033 10.8277 13.7357C9.94255 13.9985 9.01008 14.0664 8.09562 13.9346C7.18117 13.8029 6.30682 13.4747 5.5338 12.9731C5.33954 12.8483 5.20328 12.6521 5.155 12.4277C5.10672 12.2034 5.15037 11.9692 5.27636 11.7767C5.40234 11.5842 5.60034 11.4492 5.82679 11.4014C6.05324 11.3536 6.2896 11.3968 6.48386 11.5216C6.71254 11.6723 6.9544 11.8023 7.20654 11.9101C7.44724 12.0118 7.6965 12.0924 7.95143 12.1509C8.73809 12.334 9.55942 12.3099 10.3338 12.081C11.1787 11.8226 11.9517 11.3736 12.592 10.7694C13.2529 10.1679 13.745 9.4068 14.0203 8.5605C14.2925 7.72007 14.3375 6.82365 14.151 5.9606C14.0702 5.58346 13.9529 5.2149 13.8008 4.86004C13.3379 3.7507 12.493 2.83988 11.4163 2.28943C10.3396 1.73898 9.10083 1.58455 7.92006 1.85358C7.53804 1.93405 7.16506 2.05202 6.80665 2.20575C5.83357 2.61473 5.0129 3.31336 4.45829 4.20488C3.89326 5.11259 3.61772 6.16805 3.66766 7.23336ZM7.89915 4.40039C7.89915 4.19058 7.98328 3.98936 8.13302 3.841C8.28276 3.69264 8.48586 3.60929 8.69762 3.60929C8.90939 3.60929 9.11248 3.69264 9.26223 3.841C9.41197 3.98936 9.49609 4.19058 9.49609 4.40039V6.86046L11.442 7.93124C11.6267 8.03323 11.763 8.20375 11.8208 8.40528C11.8786 8.60682 11.8533 8.82287 11.7504 9.0059C11.6474 9.18893 11.4753 9.32395 11.2719 9.38125C11.0685 9.43856 10.8504 9.41346 10.6657 9.31147L8.36961 8.04647C8.22944 7.9839 8.11048 7.88256 8.02703 7.75463C7.94357 7.6267 7.89917 7.47761 7.89915 7.32529V4.40039Z" fill="#3A3A3A"/>
</svg>
