<svg width="31" height="29" viewBox="0 0 31 29" fill="none" xmlns="http://www.w3.org/2000/svg">
<path d="M7.75 25.7778L12.0556 19.3333H9.47222V14.5L5.16667 20.9444H7.75V25.7778ZM3.44444 11.2778H13.7778V3.22222H3.44444V11.2778ZM3.44444 25.7778H13.7778V14.5H3.44444V25.7778ZM0 29V3.22222C0 2.33611 0.337555 1.57728 1.01267 0.945722C1.68663 0.315241 2.49722 0 3.44444 0H13.7778C14.725 0 15.5362 0.315241 16.2113 0.945722C16.8852 1.57728 17.2222 2.33611 17.2222 3.22222V14.5H19.375C20.2074 14.5 20.9181 14.775 21.5071 15.3249C22.095 15.8759 22.3889 16.5407 22.3889 17.3194V24.7708C22.3889 25.2273 22.5898 25.6435 22.9917 26.0194C23.3935 26.3954 23.8384 26.5833 24.3264 26.5833C24.8431 26.5833 25.2954 26.3954 25.6835 26.0194C26.0704 25.6435 26.2639 25.2273 26.2639 24.7708V9.66667H25.8333C25.3454 9.66667 24.9366 9.512 24.6071 9.20267C24.2764 8.89441 24.1111 8.51204 24.1111 8.05556V4.83333H24.9722V2.41667H26.6944V4.83333H28.4167V2.41667H30.1389V4.83333H31V8.05556C31 8.51204 30.8347 8.89441 30.504 9.20267C30.1745 9.512 29.7657 9.66667 29.2778 9.66667H28.8472V24.7708C28.8472 25.8986 28.4098 26.8851 27.5349 27.7304C26.6589 28.5768 25.5894 29 24.3264 29C23.0921 29 22.0301 28.5768 21.1403 27.7304C20.2505 26.8851 19.8056 25.8986 19.8056 24.7708V17.3194C19.8056 17.1852 19.77 17.0842 19.6988 17.0166C19.6264 16.95 19.5185 16.9167 19.375 16.9167H17.2222V29H0ZM13.7778 25.7778H3.44444H13.7778Z" fill="#3A3A3A"/>
</svg>
