<svg width="56" height="56" viewBox="0 0 56 56" fill="none" xmlns="http://www.w3.org/2000/svg">
<path d="M35.675 5.82487C35.4285 5.75383 35.2044 5.8959 35.1148 6.13269C34.5769 8.05066 34.0615 10.4659 33.7478 11.8866C33.6358 12.4549 33.5461 12.8574 33.5237 12.9285C33.4117 13.1652 32.8066 14.4202 31.5293 14.5149H24.5153C23.1932 14.4202 22.5882 13.1889 22.5209 12.9995C22.4761 12.8337 22.3865 12.4312 22.2744 11.8866C21.9607 10.4422 21.4453 8.05066 20.9075 6.13269C20.8403 5.87223 20.5938 5.75383 20.3473 5.82487C20.1232 5.8959 19.9887 6.15637 20.0559 6.41683C20.5713 8.31113 21.1092 10.7027 21.4229 12.1234C21.5573 12.7154 21.647 13.1179 21.7142 13.3547C21.8487 13.6862 22.6554 15.3437 24.5153 15.4858H28.0111H31.5741C33.3893 15.3437 34.196 13.6862 34.3753 13.2836C34.4201 13.1179 34.5097 12.6917 34.6442 12.1234C34.9579 10.7027 35.4733 8.31113 36.0111 6.41683C36.0559 6.15637 35.9215 5.91958 35.675 5.82487Z" fill="white"/>
<path d="M1.09804 26.4017H54.902C55.507 26.4017 56 25.8808 56 25.2414C56 24.6021 55.507 24.0812 54.902 24.0812H51.8543C51.2941 10.7027 40.8067 0 28.0112 0C15.2157 0 4.72829 10.7027 4.14566 24.0812H1.09804C0.492997 24.0812 0 24.6021 0 25.2414C0 25.8808 0.492997 26.4017 1.09804 26.4017ZM28.0112 2.34419C39.5966 2.34419 49.0756 11.9814 49.6583 24.0812H6.36415C6.94678 11.9814 16.4258 2.34419 28.0112 2.34419Z" fill="white"/>
<path d="M22.4091 40.8458C24.1122 41.9587 26.0617 42.5506 28.0337 42.5506C28.0786 42.5506 28.1458 42.5506 28.1906 42.5506C29.0421 42.527 29.8937 42.4086 30.7004 42.1955C33.5463 41.4141 35.9217 39.4724 37.4455 36.7257C38.3643 35.0208 38.8573 33.0792 38.8573 31.1375C38.8573 30.8771 38.6556 30.664 38.4091 30.664C38.1626 30.664 37.9609 30.8771 37.9609 31.1375C37.9609 32.9134 37.5127 34.6893 36.6836 36.2521C35.2942 38.7857 33.0982 40.5853 30.4987 41.2957C29.7592 41.4851 28.9973 41.6035 28.213 41.6272C26.3755 41.6745 24.5155 41.1299 22.9021 40.0644C20.5715 38.5489 18.9581 36.1811 18.3531 33.4344C18.1962 32.724 18.1066 31.9663 18.1066 31.1375C18.1066 30.8771 17.9049 30.664 17.6584 30.664C17.4119 30.664 17.2102 30.8771 17.2102 31.1375C17.2102 32.0136 17.2998 32.8661 17.4791 33.6475C18.129 36.631 19.8769 39.1883 22.4091 40.8458Z" fill="white"/>
<path d="M5.31084 31.1848C5.33325 30.5455 4.86266 30.0009 4.25762 29.9535C3.65258 29.9298 3.13717 30.4271 3.09236 31.0664C3.06995 31.3979 3.06995 31.7531 3.04754 32.1319C3.04754 32.4634 3.02513 32.8186 3.00272 33.1501C2.9579 34.263 3.38367 35.0918 4.2128 35.6364C4.36967 35.7548 4.57135 35.8732 4.81785 35.9679L4.97471 36.0389C5.46771 36.252 6.13998 36.5362 6.67779 36.8677C6.85706 36.9861 7.01392 37.1045 7.17079 37.2229C11.0924 40.8457 12.4817 44.6579 11.5629 49.2042C11.294 50.5066 11.7198 51.5248 12.773 52.2114C14.0952 53.0402 15.5293 53.9637 17.1428 55.0529C18.4873 55.929 19.5629 55.408 20.2352 54.8398C22.2072 53.1586 24.2912 52.3061 26.6218 52.2825C28.3473 52.2588 30.252 52.685 32.3585 53.5848C32.5153 53.6322 32.6722 53.7269 32.8963 53.8689C33.322 54.1531 33.7702 54.5319 34.1736 54.9108L34.4649 55.1949C34.6442 55.3607 34.8459 55.5028 35.0251 55.6212C35.4285 55.8816 35.8767 56 36.3473 56C36.7954 56 37.2436 55.8816 37.6694 55.6212C38.5433 55.1002 39.4621 54.5556 40.2464 54.1294L42.2184 53.0165C43.2716 52.4009 43.7422 51.359 43.5181 50.0804C43.0699 47.5467 43.5629 45.0842 45.0643 42.3611C46.5209 39.6854 48.5153 37.9806 51.1372 37.1281C52.2128 36.773 52.8178 35.9205 52.8627 34.6892L52.9075 33.1264C52.9299 32.4871 52.9523 31.8241 52.9747 31.1611C52.9971 30.5218 52.5041 29.9772 51.8991 29.9535C51.2716 29.9298 50.7786 30.4508 50.7562 31.0901C50.7338 31.7531 50.7114 32.3924 50.7114 33.0317L50.6666 34.6182C50.6666 34.7603 50.6442 34.8076 50.6442 34.8076C50.6442 34.8076 50.5994 34.855 50.5097 34.8787C47.3276 35.9205 44.9075 37.9806 43.1596 41.1772C41.3893 44.4212 40.8066 47.381 41.3669 50.4829C41.4117 50.7907 41.3893 50.8144 41.1876 50.9328L39.238 52.022C38.4313 52.4956 37.4901 53.0402 36.6162 53.5611C36.4145 53.6795 36.28 53.6322 36.2128 53.5848C36.1456 53.5374 36.0559 53.4664 36.0111 53.4427L35.6302 53.0875C35.1596 52.6613 34.6442 52.1878 34.0615 51.8326C33.7254 51.6195 33.4117 51.4537 33.1652 51.359C30.8347 50.3645 28.6386 49.8672 26.6218 49.9146C23.7758 49.962 21.2436 50.9801 18.8683 53.0165C18.6218 53.2296 18.5545 53.2059 18.3305 53.0639C16.717 51.9746 15.2604 51.0275 13.9159 50.1987C13.759 50.104 13.7142 50.033 13.7142 50.033C13.7142 50.033 13.6918 49.9383 13.7366 49.7015C14.8347 44.3264 13.1764 39.6618 8.62737 35.4706C8.38087 35.2338 8.08956 35.0444 7.84306 34.8787C7.17079 34.4525 6.40888 34.1209 5.87107 33.9078L5.60216 33.7894C5.53493 33.7658 5.46771 33.7184 5.37807 33.6711C5.22121 33.5763 5.1988 33.5527 5.22121 33.2922C5.24362 32.937 5.24362 32.6055 5.26603 32.2503C5.28843 31.8478 5.28843 31.5163 5.31084 31.1848Z" fill="white"/>
</svg>
