<svg width="13" height="13" viewBox="0 0 13 13" fill="none" xmlns="http://www.w3.org/2000/svg">
<path d="M0.00105238 4.35855C-0.014281 4.63255 0.139052 4.88788 0.388386 5.00255L5.39105 7.29722L7.68572 12.2992C7.79505 12.5365 8.03239 12.6879 8.29172 12.6879L8.32972 12.6865C8.46352 12.6791 8.59195 12.6314 8.69827 12.5498C8.80459 12.4682 8.88385 12.3565 8.92572 12.2292L12.6557 0.874548C12.7337 0.635881 12.6711 0.372548 12.4937 0.194548C12.3164 0.0165483 12.0537 -0.0441184 11.8137 0.0325483L0.458386 3.76255C0.331084 3.80442 0.219356 3.88368 0.137776 3.99C0.0561948 4.09631 0.00854881 4.22475 0.00105238 4.35855ZM10.9771 1.71121L8.18905 10.1979L6.49972 6.51655C6.43327 6.37141 6.31686 6.25499 6.17172 6.18855L2.48905 4.49922L10.9771 1.71121Z" fill="white"/>
</svg>
