<svg width="19" height="20" viewBox="0 0 19 20" fill="none" xmlns="http://www.w3.org/2000/svg">
<path d="M9.49728 0.238901C11.6953 0.238273 13.8255 0.999835 15.5249 2.39381C17.2243 3.78779 18.3878 5.72793 18.8171 7.88361C19.2463 10.0393 18.9148 12.2771 17.879 14.2158C16.8432 16.1544 15.1672 17.6739 13.1366 18.5153C11.106 19.3567 8.84653 19.4679 6.74312 18.8301C4.6397 18.1922 2.82255 16.8447 1.60132 15.0172C0.380082 13.1897 -0.169668 10.9953 0.0457494 8.80784C0.261166 6.62042 1.22842 4.57538 2.78268 3.0212C3.66324 2.13771 4.7098 1.43706 5.86216 0.959561C7.01451 0.482065 8.24992 0.237147 9.49728 0.238901ZM3.55554 15.3545C4.06408 15.0902 4.66228 15.0253 5.25583 14.9619C6.32083 14.846 7.38583 14.7316 7.78772 13.1889C7.78942 13.1798 7.79255 13.1709 7.79699 13.1627C7.307 12.7407 6.90048 12.3759 6.82165 11.5118H6.77682C6.6735 11.5111 6.57199 11.4846 6.48159 11.4345C6.33379 11.3415 6.21996 11.2033 6.15699 11.0404C6.08015 10.8493 6.03676 10.6464 6.02869 10.4407C6.02869 10.3773 6.02869 10.2567 6.02869 10.1423C6.02869 10.0279 6.02869 9.94293 6.04415 9.88883C6.04714 9.87242 6.0518 9.85637 6.05806 9.84091C6.16317 9.54877 6.32392 9.45294 6.53723 9.45912L6.39657 9.36638C6.32083 8.4173 6.55115 6.77266 5.51242 6.46042C7.46157 4.05219 9.7075 2.7507 11.3954 4.88533C13.4265 4.99199 14.2426 8.221 12.6212 9.57969L12.6119 9.66006C12.6733 9.6412 12.7365 9.62877 12.8005 9.62297C12.9145 9.6118 13.0294 9.6338 13.1313 9.68634C13.1865 9.71513 13.2353 9.75473 13.2749 9.8028C13.3145 9.85087 13.3439 9.90641 13.3616 9.96612C13.4042 10.1246 13.4004 10.292 13.3508 10.4484C13.2766 10.6818 13.1823 10.9507 13.0942 11.178C13.0683 11.2757 13.0146 11.3637 12.9396 11.4315C12.8402 11.5024 12.7173 11.5323 12.5964 11.5149H12.5253C12.5099 12.3172 12.1173 12.685 11.5979 13.1673L11.5191 13.2415C11.9828 14.5414 12.9365 14.7022 13.8902 14.863C14.4498 14.9557 15.0078 15.05 15.4839 15.3267C16.5744 14.1604 17.2998 12.7005 17.5709 11.127C17.8419 9.55352 17.6467 7.93508 17.0093 6.47114C16.3719 5.0072 15.3202 3.76171 13.9836 2.88815C12.6471 2.01458 11.0842 1.55111 9.48754 1.55483C7.89086 1.55856 6.33015 2.02932 4.99771 2.90911C3.66527 3.7889 2.61933 5.03928 1.98876 6.50618C1.35819 7.97308 1.17055 9.59241 1.44894 11.1646C1.72734 12.7369 2.45962 14.1933 3.55554 15.3545Z" fill="#3A3A3A"/>
</svg>
