<svg width="12" height="12" viewBox="0 0 12 12" fill="none" xmlns="http://www.w3.org/2000/svg">
<path d="M0.484542 0H11.5145C11.7827 0 11.999 0.216797 11.999 0.483398V11.5156C11.999 11.7832 11.7817 11.999 11.5145 11.999C11.3804 11.999 11.259 11.9443 11.1709 11.8564L5.98679 7.40137L0.800718 11.8809C0.59907 12.0547 0.293662 12.0332 0.118444 11.832C0.0391549 11.7412 0.000978873 11.6279 0.000978873 11.5166H0V0.483398C0 0.216797 0.21731 0 0.484542 0ZM11.0299 0.967773H0.970063V10.46L5.66572 6.40332C5.84387 6.24512 6.11698 6.23926 6.30296 6.39941L11.0309 10.4629V0.967773H11.0299Z" fill="#3A3A3A"/>
</svg>
