<svg width="19" height="20" viewBox="0 0 19 20" fill="none" xmlns="http://www.w3.org/2000/svg">
<path fill-rule="evenodd" clip-rule="evenodd" d="M11.3617 2.68943C11.9817 2.87562 12.574 3.14409 13.1228 3.48767L14.0706 2.53473C14.2908 2.31557 14.5888 2.19254 14.8994 2.19254C15.21 2.19254 15.508 2.31557 15.7282 2.53473L16.6992 3.51087C16.9183 3.73118 17.0412 4.0293 17.0412 4.34006C17.0412 4.65081 16.9183 4.94893 16.6992 5.16924L15.6787 6.19024C15.9729 6.72325 16.1984 7.29139 16.3498 7.88109H17.8218C17.9764 7.88069 18.1295 7.9108 18.2724 7.9697C18.4154 8.0286 18.5453 8.11514 18.6547 8.22435C18.7642 8.33357 18.851 8.46331 18.9103 8.60616C18.9695 8.749 19 8.90214 19 9.0568V10.4336C18.9992 10.7444 18.8754 11.0421 18.6558 11.2619C18.4362 11.4816 18.1386 11.6054 17.828 11.6062H16.342C16.1873 12.1896 15.9603 12.7514 15.6663 13.2785L16.6992 14.3165C16.9183 14.5368 17.0412 14.835 17.0412 15.1457C17.0412 15.4565 16.9183 15.7546 16.6992 15.9749L15.7297 16.9464C15.5093 17.1657 15.211 17.2887 14.9002 17.2887C14.5893 17.2887 14.2911 17.1657 14.0706 16.9464L13.0903 15.9641C12.5496 16.296 11.968 16.556 11.3601 16.7375V18.0664C11.3593 18.3771 11.2355 18.6749 11.0159 18.8947C10.7963 19.1144 10.4987 19.2382 10.1881 19.239H8.81348C8.50288 19.2382 8.20525 19.1144 7.98562 18.8947C7.766 18.6749 7.64226 18.3771 7.64144 18.0664V16.8659C6.97425 16.715 6.33149 16.4713 5.73185 16.142L4.92782 16.9464C4.70722 17.1648 4.4094 17.2873 4.09904 17.2873C3.78868 17.2873 3.49086 17.1648 3.27026 16.9464L2.2946 15.9702C2.07591 15.7497 1.9532 15.4517 1.9532 15.1411C1.9532 14.8304 2.07591 14.5324 2.2946 14.3119L3.02441 13.5817C2.64214 12.9692 2.35245 12.3035 2.16471 11.6062H1.17204C0.861445 11.6054 0.563807 11.4816 0.344184 11.2619C0.124561 11.0421 0.00081628 10.7444 0 10.4336L0 9.0568C-1.07731e-06 8.74552 0.123382 8.44694 0.343094 8.22654C0.562805 8.00614 0.86091 7.88191 1.17204 7.88109H2.15389C2.33636 7.175 2.62354 6.50025 3.00586 5.8793L2.2946 5.16924C2.07629 4.94853 1.95383 4.65056 1.95383 4.34006C1.95383 4.02955 2.07629 3.73158 2.2946 3.51087L3.27026 2.53473C3.49046 2.31557 3.78844 2.19254 4.09904 2.19254C4.40964 2.19254 4.70761 2.31557 4.92782 2.53473L5.70093 3.30822C6.3072 2.96634 6.95979 2.71414 7.63835 2.55948V1.41162C7.63917 1.10034 7.76334 0.802094 7.98363 0.582275C8.20392 0.362456 8.50235 0.239013 8.81348 0.239014L10.1896 0.239014C10.5002 0.23983 10.7978 0.363635 11.0175 0.583365C11.2371 0.803096 11.3608 1.10088 11.3617 1.41162V2.68943ZM9.2557 5.91333C10.0081 5.91333 10.7435 6.13657 11.3691 6.5548C11.9946 6.97303 12.4822 7.56747 12.77 8.26293C13.0579 8.9584 13.1331 9.72365 12.9862 10.4619C12.8393 11.2002 12.4769 11.8782 11.9448 12.4104C11.4127 12.9426 10.7348 13.3049 9.99682 13.4515C9.25887 13.5982 8.49402 13.5226 7.79901 13.2343C7.104 12.9461 6.51005 12.4581 6.09228 11.832C5.6745 11.206 5.45168 10.4701 5.45199 9.71736C5.45199 9.21768 5.55038 8.72289 5.74156 8.26126C5.93273 7.79964 6.21293 7.38022 6.56616 7.02696C6.91939 6.6737 7.33872 6.39353 7.8002 6.20245C8.26167 6.01137 8.75626 5.91313 9.2557 5.91333Z" fill="#3A3A3A"/>
</svg>
