<svg width="24" height="32" viewBox="0 0 24 32" fill="none" xmlns="http://www.w3.org/2000/svg">
<path d="M9.50922 1.1596V2.3092C9.50922 2.71365 9.14238 2.91494 8.78425 2.91494H6.66093V5.29541H17.3391V2.91494H15.2158C14.8576 2.91494 14.4908 2.71365 14.4908 2.3092V1.1596H9.50922ZM3.32518 12.3087L3.46197 11.5754C3.7629 11.6435 4.03275 11.6779 4.27337 11.6779C4.51275 11.6779 4.70611 11.6685 4.85347 11.651V11.2503L4.41264 11.2147C4.0172 11.1834 3.74052 11.0953 3.59192 10.9546C3.44332 10.814 3.36933 10.6058 3.36933 10.3301C3.36933 9.95069 3.45948 9.51186 3.64104 9.36933C3.82197 9.22743 4.13036 9.15616 4.56435 9.15616C4.99834 9.15616 5.39067 9.19305 5.7401 9.26744L5.61762 9.97882C5.31357 9.93382 5.07047 9.91194 4.88767 9.91194C4.70487 9.91194 4.54943 9.91944 4.42259 9.93382V10.3301L4.77513 10.3614C5.2029 10.3983 5.49824 10.4927 5.66176 10.639C5.82466 10.7859 5.90674 10.9896 5.90674 11.2503C5.90674 11.4366 5.87689 11.7748 5.82342 11.9023C5.76933 12.0292 5.70155 12.1286 5.62508 12.1955C5.54798 12.2624 5.43793 12.3149 5.29927 12.3487C5.16062 12.383 5.03565 12.4062 4.92933 12.4131C4.82301 12.4206 4.68187 12.4243 4.50591 12.4243C4.08062 12.4243 3.68767 12.3855 3.32518 12.3087ZM7.25471 9.22305V11.6642H7.60228C7.72663 11.6642 7.81181 11.6504 7.8572 11.6223C7.90321 11.5941 7.9256 11.5291 7.9256 11.4285V9.22305H8.90549V11.1397C8.90549 11.3885 8.88622 11.5966 8.85202 11.7485C8.8172 11.9017 8.74881 12.033 8.65057 12.1399C8.55233 12.2468 8.41741 12.3218 8.24891 12.3618C8.08104 12.4024 7.85907 12.4243 7.58798 12.4243C7.31689 12.4243 7.09554 12.4024 6.92891 12.3618C6.7629 12.3218 6.62611 12.2449 6.52974 12.1399C6.43399 12.0342 6.36497 11.903 6.32891 11.7485C6.29285 11.5948 6.27544 11.3916 6.27544 11.1397V9.22305H7.25471ZM12.0665 12.3574H10.9884L10.5867 11.3003H10.376V12.3574H9.39668V9.22305H10.9393C11.6419 9.22305 11.9925 9.67314 11.9925 10.3226C11.9925 10.7671 11.8408 11.0603 11.5368 11.2028L12.0665 12.3574ZM10.376 9.93382V10.6158H10.6017C10.7192 10.6158 10.8056 10.6052 10.8584 10.5827C10.9119 10.5608 10.9393 10.5096 10.9393 10.4289V10.1207C10.9393 10.0407 10.9119 9.98945 10.8584 9.96695C10.8056 9.94507 10.7173 9.93382 10.6017 9.93382H10.376ZM14.1538 9.22305H15.1872L14.428 12.3574H12.9979L12.2388 9.22305H13.2721L13.6881 11.3441H13.7328L14.1538 9.22305ZM17.4665 11.1303H16.4866V11.6467H17.6866V12.3574H15.5067V9.22305H17.6624L17.5399 9.93382H16.4866V10.4858H17.4665V11.1303ZM19.0147 9.22305L19.2839 10.5571H19.3181L19.593 9.22305H20.6748L19.7938 11.6016V12.3574H18.8139V11.6016L17.9322 9.22305H19.0147ZM5.67668 20.0233C5.70947 19.9897 5.74856 19.963 5.79169 19.9448C5.83482 19.9265 5.88113 19.9171 5.92793 19.9169C5.97472 19.9168 6.02108 19.9261 6.06429 19.9441C6.10751 19.9621 6.14674 19.9886 6.17969 20.022C6.31834 20.1627 6.31896 20.3909 6.18093 20.5328L5.57347 21.1516L6.18155 21.7718C6.31834 21.9118 6.31648 22.1387 6.1772 22.2787C6.03793 22.4188 5.81347 22.4188 5.67606 22.2781L5.07233 21.663L4.46736 22.2794C4.43463 22.3129 4.39559 22.3396 4.35252 22.3579C4.30944 22.3761 4.26318 22.3856 4.21643 22.3857C4.16968 22.3858 4.12337 22.3766 4.0802 22.3585C4.03703 22.3405 3.99786 22.314 3.96497 22.2806C3.8257 22.1406 3.82508 21.9118 3.96373 21.7705L4.57057 21.151L3.96311 20.5315C3.8257 20.3909 3.82756 20.1639 3.96684 20.0239C4.10674 19.8845 4.33057 19.8845 4.46798 20.0245L5.07171 20.6403L5.67668 20.0233ZM19.6166 26.4314C19.9013 26.4314 20.1401 26.2007 20.1401 25.9051C20.1401 25.6188 19.9101 25.3781 19.6166 25.3781H8.96456C8.67047 25.3781 8.44041 25.6188 8.44041 25.9051C8.44041 26.2007 8.67979 26.4314 8.96456 26.4314H19.6166ZM19.6166 16.7977C19.9013 16.7977 20.1401 16.567 20.1401 16.2713C20.1401 15.9844 19.9101 15.7443 19.6166 15.7443H8.96456C8.67047 15.7443 8.44041 15.9844 8.44041 16.2713C8.44041 16.567 8.67979 16.7977 8.96456 16.7977H19.6166ZM19.6166 21.6642C19.9013 21.6642 20.1401 21.4323 20.1401 21.1366C20.1401 20.8503 19.9101 20.6103 19.6166 20.6103H8.96456C8.67047 20.6103 8.44041 20.8503 8.44041 21.1366C8.44041 21.4323 8.67979 21.6642 8.96456 21.6642H19.6166ZM3.98736 25.8807C3.84497 25.6669 3.90155 25.3768 4.11482 25.2337C4.16538 25.1996 4.22213 25.1759 4.28183 25.1638C4.34152 25.1518 4.40299 25.1518 4.46271 25.1637C4.52242 25.1756 4.57922 25.1992 4.62984 25.2332C4.68046 25.2672 4.72392 25.3109 4.75772 25.3618L5.01078 25.7394L6.01368 24.5123C6.05233 24.4649 6.0999 24.4257 6.15366 24.3969C6.20741 24.368 6.2663 24.3501 6.32695 24.3442C6.38759 24.3383 6.4488 24.3445 6.50707 24.3624C6.56534 24.3803 6.61953 24.4095 6.66653 24.4485C6.71356 24.4874 6.75252 24.5351 6.78117 24.5891C6.80982 24.6431 6.8276 24.7023 6.83349 24.7632C6.83938 24.8241 6.83326 24.8856 6.8155 24.9441C6.79773 25.0026 6.76866 25.0571 6.72995 25.1043L5.3428 26.8015C5.31233 26.8415 5.27503 26.8771 5.2315 26.9065C5.01886 27.0503 4.73036 26.9928 4.58798 26.7784L3.98736 25.8807ZM3.98736 16.7683C3.91888 16.6654 3.89384 16.5394 3.91774 16.4179C3.94164 16.2965 4.01253 16.1896 4.11482 16.1206C4.21698 16.0519 4.3421 16.0269 4.46266 16.0509C4.58322 16.0749 4.68935 16.1461 4.75772 16.2488L5.01078 16.6264L6.01368 15.3993C6.17658 15.2005 6.46881 15.1717 6.66653 15.3355C6.71356 15.3743 6.75252 15.4221 6.78117 15.4761C6.80982 15.5301 6.8276 15.5892 6.83349 15.6502C6.83938 15.7111 6.83326 15.7725 6.8155 15.8311C6.79773 15.8896 6.76866 15.944 6.72995 15.9912L5.3428 17.6891C5.31233 17.7291 5.27503 17.7641 5.2315 17.7935C5.01886 17.9373 4.73036 17.8797 4.58798 17.666L3.98736 16.7683ZM6.37554 6.47564C5.90487 6.47564 5.50756 6.07744 5.50756 5.60359V4.43337H1.27585C1.20497 4.43337 1.14342 4.49838 1.14342 4.56714V30.7066C1.14342 30.7804 1.20435 30.8398 1.27585 30.8398H22.7241C22.795 30.8398 22.8566 30.7804 22.8566 30.7066V4.56714C22.8566 4.49838 22.795 4.43337 22.7241 4.43337H18.4924V5.60359C18.4924 6.07744 18.0958 6.47564 17.6251 6.47564H6.37554ZM1.28642 32C0.578238 32 0 31.4186 0 30.7066V4.56714C0 3.85388 0.576995 3.27376 1.28642 3.27376H5.51813V2.63739C5.51813 2.15792 5.9086 1.76534 6.38549 1.76534H8.3658V0.964563C8.3658 0.443837 8.80725 0 9.32518 0H14.6748C15.1927 0 15.6342 0.443837 15.6342 0.964563V1.76534H17.6145C18.0914 1.76534 18.4825 2.15792 18.4825 2.63739V3.27376H22.7136C23.423 3.27376 24 3.85388 24 4.56714V30.7066C24 31.4186 23.4218 32 22.7136 32H1.28642Z" fill="#3A3A3A"/>
</svg>
