<svg width="30" height="28" viewBox="0 0 30 28" fill="none" xmlns="http://www.w3.org/2000/svg">
<path d="M3.73779 21.7065C3.79308 22.1013 3.89387 22.4881 4.03809 22.8591C4.18804 23.2542 4.41659 23.6136 4.70947 23.915C5.65674 24.8693 6.88721 24.8669 8.23486 24.8669H8.87451C9.42871 24.0563 10.73 23.4887 12.2437 23.4887C14.2627 23.4887 15.9058 24.4975 15.9058 25.7443C15.9058 26.9911 14.2676 28 12.2437 28C10.7617 28 9.48486 27.4547 8.91113 26.6714H8.23486C6.50635 26.6714 4.92676 26.6714 3.46191 25.199C2.99744 24.7245 2.63353 24.1585 2.39258 23.5358C2.16663 22.9486 2.01884 22.3334 1.95312 21.7065C1.43153 21.6936 0.935503 21.4744 0.570694 21.0957C0.205885 20.7169 0.00111739 20.2086 0 19.6789L0 12.3666C0.00128931 11.8292 0.212108 11.3142 0.586353 10.9343C0.960597 10.5543 1.46781 10.3403 1.99707 10.339H2.13867C2.5 6.58365 4.82422 3.64634 7.96631 1.88891C9.83011 0.852822 11.8883 0.227778 14.0063 0.0546419C16.1589 -0.136339 18.3259 0.174821 20.3418 0.964341C23.8696 2.3797 26.8262 5.38642 27.9712 10.339H28.0029C28.5322 10.3403 29.0394 10.5543 29.4136 10.9343C29.7879 11.3142 29.9987 11.8292 30 12.3666V19.6789C29.9987 20.2162 29.7879 20.7312 29.4136 21.1111C29.0394 21.4911 28.5322 21.7052 28.0029 21.7065H26.0059V10.5174C24.9829 6.4498 22.5317 3.97106 19.624 2.811C17.8851 2.1316 16.0161 1.86535 14.1602 2.03268C12.321 2.17969 10.5331 2.71944 8.91357 3.6166C6.19385 5.14846 4.20898 7.68917 4.04785 10.9239C4.04382 11.0211 4.02572 11.1172 3.99414 11.209V21.7065H3.73779Z" fill="#3A3A3A"/>
</svg>
